<?xml version="1.0" standalone="no"?>
<!DOCTYPE svg PUBLIC "-//W3C//DTD SVG 20010904//EN"
 "http://www.w3.org/TR/2001/REC-SVG-20010904/DTD/svg10.dtd">
<svg version="1.0" xmlns="http://www.w3.org/2000/svg"
 width="513.000000pt" height="513.000000pt" viewBox="0 0 513.000000 513.000000"
 preserveAspectRatio="xMidYMid meet">
<metadata>
Created by potrace 1.14, written by Peter Selinger 2001-2017
</metadata>
<g transform="translate(0.000000,513.000000) scale(0.100000,-0.100000)"
fill="#000000" stroke="none">
<path d="M2504 5119 c-12 -4 -29 -26 -37 -48 -9 -23 -19 -41 -23 -41 -3 0 -2
4 1 10 8 14 -14 52 -28 47 -8 -2 -12 -42 -14 -118 -3 -199 -10 -326 -17 -338
-18 -28 -26 -5 -25 72 0 45 0 134 -1 197 0 63 1 128 3 143 3 20 -1 31 -15 38
-32 17 -42 -3 -40 -83 1 -101 10 -357 17 -515 3 -85 2 -134 -5 -138 -12 -7
-11 -16 -16 120 -2 61 -6 135 -8 165 -2 30 -7 129 -11 220 -8 171 -15 203 -43
198 -19 -4 -21 -31 -9 -193 4 -55 10 -138 13 -184 3 -47 7 -93 10 -104 2 -10
6 -69 9 -130 4 -62 9 -123 12 -137 2 -14 7 -54 10 -89 5 -51 3 -63 -8 -59 -15
5 -36 89 -45 183 -3 33 -10 84 -15 114 -5 30 -9 76 -9 102 0 27 -4 70 -9 96
-6 26 -12 88 -15 136 -3 49 -7 91 -10 95 -2 4 -7 33 -10 65 -9 75 -14 87 -37
87 -17 0 -19 -8 -19 -69 0 -37 4 -90 9 -117 5 -27 12 -80 16 -119 4 -38 11
-88 16 -110 5 -22 8 -53 8 -70 0 -48 -17 -8 -28 66 -6 35 -13 75 -16 89 -3 14
-12 70 -20 125 -8 55 -16 111 -19 125 -2 14 -5 37 -5 51 -1 31 -27 45 -48 27
-17 -14 -13 -79 11 -168 8 -30 17 -82 20 -115 3 -33 12 -82 20 -110 8 -27 17
-70 20 -95 3 -25 10 -60 16 -79 17 -60 -6 -19 -37 64 -17 44 -31 101 -32 128
-1 26 -11 82 -22 125 -11 42 -23 100 -26 127 -3 28 -10 61 -17 75 -12 27 -44
39 -56 20 -4 -6 8 -71 27 -143 38 -149 51 -237 35 -237 -18 0 -36 42 -38 90
-1 25 -5 63 -8 85 -3 22 -9 58 -11 80 -16 120 -48 165 -85 120 -10 -12 -7 -33
19 -114 17 -54 31 -109 31 -122 l-1 -24 -19 24 c-17 19 -55 124 -64 173 -6 33
-18 57 -32 62 -38 15 -76 -37 -119 -164 l-22 -65 -13 30 c-7 17 -18 44 -25 61
-16 38 -51 50 -65 24 -7 -14 -3 -31 18 -72 16 -29 32 -64 36 -78 5 -14 9 -27
10 -30 16 -35 32 -76 53 -130 13 -36 35 -85 49 -109 25 -46 29 -61 15 -61 -4
0 -28 39 -52 88 -24 48 -51 98 -60 112 -8 14 -28 61 -44 105 -32 91 -50 117
-79 113 -15 -2 -20 -9 -18 -25 2 -12 62 -140 134 -285 73 -145 133 -269 134
-275 3 -16 -9 -24 -23 -15 -12 8 -66 113 -78 152 -4 14 -37 84 -73 155 -36 72
-79 158 -96 193 -26 55 -33 63 -56 60 -19 -2 -24 -8 -23 -26 2 -12 51 -111
109 -218 58 -108 119 -224 135 -258 16 -33 40 -81 54 -104 40 -71 0 -27 -46
51 -47 78 -45 74 -172 317 -96 183 -107 200 -130 200 -35 0 -28 -53 16 -113
21 -28 66 -108 175 -307 13 -25 60 -109 104 -187 44 -78 78 -150 76 -158 -4
-20 -99 133 -180 287 -31 59 -66 121 -77 137 -12 16 -21 32 -21 35 0 17 -125
218 -143 231 -24 17 -48 4 -42 -24 2 -10 37 -72 78 -138 41 -66 107 -178 147
-249 39 -71 94 -164 121 -207 27 -43 49 -81 49 -83 0 -26 -204 247 -245 327
-52 102 -191 327 -214 346 -29 25 -56 29 -64 10 -2 -7 31 -66 74 -132 43 -66
93 -147 111 -180 17 -33 60 -100 95 -149 35 -48 63 -93 63 -100 -1 -16 -44 36
-98 119 -25 39 -82 120 -127 180 -45 61 -94 129 -108 153 -31 48 -63 56 -73
18 -3 -15 -14 -26 -27 -28 -41 -6 -31 -41 37 -133 36 -49 64 -91 62 -93 -10
-9 -54 32 -96 87 -49 67 -75 82 -93 56 -11 -14 -16 -14 -47 -2 -61 25 -87 28
-103 12 -15 -14 -13 -47 3 -70 11 -17 40 -95 35 -95 -3 0 -14 6 -25 12 -25 16
-52 -4 -32 -24 20 -20 14 -28 -18 -22 -41 9 -54 -22 -20 -45 13 -9 77 -70 142
-136 65 -66 155 -157 200 -202 88 -88 96 -113 13 -37 -77 70 -128 89 -109 41
6 -15 99 -100 174 -157 56 -44 93 -81 86 -87 -3 -3 -37 20 -76 52 -63 51 -73
56 -86 43 -23 -23 -8 -44 76 -103 77 -53 97 -72 87 -81 -2 -3 -29 15 -58 38
-30 23 -121 89 -204 147 -164 113 -179 125 -275 214 -77 71 -117 97 -148 97
-41 0 -23 -40 40 -84 61 -44 156 -119 223 -177 23 -19 101 -75 173 -123 72
-49 133 -94 136 -102 8 -21 -34 -1 -90 41 -26 20 -99 68 -163 106 -137 82
-197 124 -270 187 -72 63 -111 76 -111 37 0 -21 98 -105 217 -186 70 -48 102
-75 91 -77 -25 -5 -122 50 -200 112 -80 64 -121 82 -140 59 -14 -17 -17 -14
93 -94 35 -25 79 -54 97 -64 40 -24 41 -35 3 -35 -16 0 -42 -8 -59 -17 -28
-16 -30 -16 -114 30 -48 26 -96 47 -107 47 -34 0 -24 -28 19 -55 22 -14 40
-28 40 -31 0 -10 -67 5 -116 26 -48 21 -86 15 -97 -14 -9 -24 35 -115 77 -159
43 -46 44 -53 9 -52 -14 0 -28 -5 -30 -11 -6 -18 43 -47 152 -88 55 -21 109
-42 120 -46 11 -4 43 -16 70 -25 28 -10 54 -21 59 -26 11 -9 -44 3 -108 26
-26 9 -57 19 -67 21 -11 2 -29 6 -41 9 -11 2 -60 18 -108 36 -86 30 -120 34
-127 14 -6 -20 14 -36 73 -56 32 -11 73 -27 91 -35 18 -8 51 -17 75 -20 24 -4
51 -10 61 -15 9 -6 17 -7 17 -3 0 3 6 2 12 -3 12 -10 151 -50 206 -59 14 -3
30 -6 36 -7 6 -1 11 9 11 23 0 21 -7 27 -42 35 -55 13 -69 29 -18 20 79 -14
164 -48 146 -60 -6 -3 -15 -4 -19 -1 -4 2 -14 1 -21 -4 -24 -14 -4 -38 41 -51
24 -7 47 -16 52 -20 29 -25 -268 49 -464 117 -74 25 -139 47 -145 48 -5 2 -35
10 -65 19 -52 16 -56 16 -68 0 -19 -27 -2 -37 153 -87 138 -45 204 -74 140
-62 -54 11 -79 17 -175 42 -52 13 -103 26 -112 29 -9 2 -22 -3 -28 -10 -14
-17 2 -51 27 -59 22 -6 242 -57 266 -62 10 -1 52 -12 93 -24 42 -11 92 -23
112 -26 20 -3 40 -8 43 -10 4 -2 24 -6 45 -10 22 -3 58 -12 82 -20 23 -8 65
-17 93 -20 63 -8 114 -22 84 -23 -11 0 -47 3 -80 9 -33 5 -80 12 -105 15 -25
3 -56 8 -70 10 -14 3 -34 7 -45 9 -11 2 -49 11 -85 20 -36 8 -103 22 -150 31
-47 9 -129 27 -183 41 -128 32 -157 32 -157 0 0 -18 8 -27 30 -35 17 -5 30 -8
30 -6 0 3 12 0 26 -5 21 -9 103 -27 199 -46 11 -2 29 -6 40 -8 77 -17 236 -48
265 -52 63 -8 143 -24 148 -29 14 -14 -39 -16 -101 -4 -40 7 -94 14 -122 15
-27 1 -68 8 -90 17 -22 8 -67 17 -100 20 -67 7 -145 22 -221 43 -55 16 -88 14
-106 -4 -18 -18 14 -47 54 -50 18 -1 47 -7 63 -12 29 -8 99 -22 175 -35 19 -3
69 -8 110 -11 84 -5 157 -24 139 -34 -12 -8 -28 -7 -144 9 -44 6 -107 13 -140
16 -33 3 -81 10 -108 16 -55 13 -77 7 -77 -20 0 -20 44 -34 143 -46 160 -18
194 -28 139 -40 -30 -6 -51 -5 -207 11 -119 13 -175 9 -175 -10 0 -26 42 -46
97 -46 58 0 78 -14 35 -25 -53 -13 -217 -77 -231 -90 -27 -26 -4 -52 59 -65
52 -11 59 -16 62 -38 6 -53 147 -72 283 -39 11 2 45 -3 75 -13 l55 -18 -185 0
c-102 0 -193 -1 -203 -1 -14 -1 -18 -8 -15 -28 l3 -28 135 -1 c74 -1 144 -4
155 -7 11 -3 65 -6 119 -6 93 -1 121 -9 59 -17 -38 -5 -319 -15 -368 -13 -77
3 -97 1 -111 -12 -9 -9 -10 -19 -4 -29 8 -13 39 -15 195 -13 102 1 183 -2 181
-6 -3 -4 -22 -8 -44 -9 -22 -2 -50 -5 -63 -8 -13 -2 -74 -4 -136 -4 -87 -1
-114 -4 -124 -16 -10 -12 -9 -18 5 -32 24 -24 202 -22 401 4 34 4 133 13 215
19 33 2 49 0 40 -5 -20 -11 -89 -21 -253 -35 -37 -4 -76 -8 -87 -10 -10 -2
-51 -6 -92 -10 -40 -3 -89 -10 -109 -16 -20 -5 -55 -8 -79 -7 -32 1 -46 -4
-56 -17 -25 -34 -11 -54 40 -57 35 -3 36 -4 17 -17 -24 -15 -28 -49 -7 -57 29
-11 52 -11 104 3 29 8 79 15 110 17 31 2 78 7 104 11 29 4 48 3 48 -2 0 -6
-31 -13 -68 -16 -37 -3 -86 -13 -107 -21 -22 -9 -62 -18 -90 -20 -27 -2 -56
-4 -62 -5 -7 -1 -13 -12 -13 -25 0 -40 42 -41 195 -6 112 26 175 34 175 23 0
-14 -147 -51 -260 -67 -39 -5 -72 -12 -101 -21 -23 -8 -25 -38 -4 -55 16 -14
20 -13 167 23 54 13 103 20 110 16 15 -9 21 -7 -122 -45 -111 -29 -136 -43
-127 -68 9 -22 51 -20 126 5 34 12 65 19 68 16 11 -11 -8 -25 -44 -32 -94 -17
-130 -53 -78 -77 35 -16 31 -26 -14 -38 -22 -6 -50 -19 -63 -30 l-23 -19 20
-20 c18 -18 57 -28 137 -33 l26 -2 -19 -25 c-17 -22 -18 -26 -5 -39 15 -15 15
-15 151 51 45 21 -3 -12 -55 -39 -78 -40 -81 -43 -69 -65 11 -22 34 -24 69 -6
14 8 70 37 125 66 55 28 134 77 175 107 41 31 93 66 115 79 45 27 95 42 95 29
0 -15 -448 -300 -486 -310 -24 -6 -50 -47 -40 -63 15 -23 64 -11 122 32 33 23
82 56 109 72 28 15 68 43 90 60 22 18 67 45 100 62 33 16 111 66 173 111 63
45 118 82 122 82 5 0 15 3 24 6 9 3 16 1 16 -5 0 -6 -44 -39 -97 -74 -54 -35
-165 -108 -248 -162 -82 -55 -188 -122 -235 -151 -85 -51 -107 -78 -75 -91 24
-9 102 33 267 143 78 52 143 92 145 90 3 -2 -7 -12 -22 -23 -14 -10 -63 -47
-108 -83 -45 -36 -121 -89 -169 -118 -47 -28 -91 -59 -98 -67 -16 -19 -6 -45
17 -45 29 0 134 66 272 170 171 130 219 162 226 151 3 -6 -14 -23 -37 -40 -24
-17 -63 -49 -88 -72 -53 -49 -208 -165 -265 -199 -86 -51 -106 -70 -95 -91 20
-36 38 -28 265 131 27 19 82 68 122 108 39 41 76 71 81 68 11 -6 -168 -192
-218 -226 -19 -13 -56 -43 -82 -67 -26 -24 -52 -43 -57 -43 -6 0 -15 -10 -22
-21 -9 -17 -8 -25 5 -37 15 -15 19 -15 49 1 17 10 71 53 119 97 47 44 92 80
100 80 13 -1 -18 -31 -108 -106 -77 -65 -103 -94 -97 -110 9 -23 46 -16 81 17
18 17 35 29 38 27 2 -3 -21 -53 -53 -113 -60 -115 -61 -135 -12 -142 28 -4 23
-6 225 150 124 96 167 118 107 54 -16 -17 -43 -47 -59 -66 -16 -19 -53 -58
-83 -87 -45 -45 -52 -56 -41 -69 7 -8 18 -15 24 -15 18 0 126 107 185 183 29
38 69 85 89 105 20 21 76 85 125 145 48 59 92 107 97 107 6 0 -3 -15 -19 -32
-16 -18 -46 -58 -67 -88 -21 -30 -44 -61 -52 -69 -7 -8 -39 -46 -69 -85 -31
-39 -100 -115 -153 -169 -100 -100 -118 -128 -95 -147 23 -19 48 3 172 148 65
75 120 139 123 142 3 3 25 32 50 65 25 33 48 62 51 65 3 3 24 30 47 60 96 125
115 148 180 213 37 38 71 71 76 75 23 14 -170 -245 -271 -364 -22 -27 -63 -76
-90 -110 -70 -88 -139 -167 -215 -248 -51 -54 -67 -77 -65 -96 6 -63 62 -26
167 110 32 41 75 91 95 110 20 19 54 60 75 91 22 31 52 67 68 81 16 14 41 42
55 64 14 21 34 48 45 60 11 12 49 61 83 110 69 97 87 119 95 111 17 -16 -457
-662 -550 -751 -32 -30 -36 -38 -26 -55 15 -29 41 -26 71 6 43 48 156 197 225
300 37 54 78 111 91 126 23 28 23 28 23 5 0 -13 -21 -58 -48 -100 -65 -107
-207 -311 -227 -328 -9 -7 -23 -26 -30 -41 -13 -24 -13 -29 1 -40 11 -9 20
-10 32 -3 16 10 115 147 201 279 77 117 77 117 85 44 3 -24 9 -57 14 -74 5
-16 7 -37 5 -45 -11 -35 -117 -248 -140 -278 -25 -33 -29 -82 -6 -89 15 -5 48
30 68 74 9 19 18 33 20 31 3 -2 -7 -48 -20 -103 -21 -83 -23 -102 -12 -124 18
-39 59 -40 88 -1 76 98 171 210 191 224 20 15 23 15 26 1 2 -8 -7 -39 -20 -67
-29 -64 -30 -93 -4 -93 10 0 22 7 26 15 43 86 63 136 67 167 7 56 9 66 21 95
20 49 62 194 73 253 6 33 17 71 25 85 14 24 14 24 9 -15 -5 -39 -27 -124 -65
-255 -45 -157 -71 -247 -80 -275 -15 -49 -23 -122 -14 -128 5 -2 18 -1 30 3
15 6 25 25 37 72 42 165 79 315 83 333 7 41 47 175 51 172 9 -9 -84 -419 -115
-508 -20 -58 -16 -89 13 -89 17 0 42 35 49 70 2 14 16 71 30 127 14 56 26 117
26 135 0 18 12 83 26 143 14 61 27 126 29 145 1 19 15 73 30 120 15 47 28 91
31 98 2 6 7 12 12 12 5 0 -1 -39 -13 -87 -13 -49 -26 -106 -29 -128 -3 -22
-13 -74 -21 -115 -24 -120 -25 -122 -35 -186 -5 -34 -19 -81 -30 -106 -10 -24
-22 -75 -25 -113 -4 -38 -9 -73 -11 -76 -8 -14 9 -39 27 -39 34 0 71 101 94
255 3 23 7 50 9 61 2 12 7 45 11 75 4 30 17 104 30 164 14 61 34 162 46 225
12 63 23 117 26 120 6 6 -3 -133 -13 -198 -3 -23 -3 -50 0 -58 10 -26 36 3 37
40 1 35 16 81 20 56 3 -27 2 -54 -5 -105 -14 -99 -15 -111 -21 -190 -3 -44 -8
-87 -10 -95 -2 -8 -6 -46 -10 -85 -10 -113 -16 -156 -31 -205 -15 -48 -18
-102 -8 -113 10 -9 41 10 48 29 6 15 18 99 41 269 3 22 8 81 11 130 3 50 9
106 13 125 l8 35 12 -30 c10 -23 10 -42 2 -80 -6 -27 -13 -95 -15 -150 -3 -56
-7 -112 -10 -125 -3 -14 -8 -52 -11 -85 -3 -33 -8 -68 -11 -77 -6 -19 12 -58
26 -58 16 0 28 33 35 90 3 30 8 69 10 85 2 17 4 67 4 113 1 45 5 82 10 82 14
0 19 -48 10 -91 -9 -36 -14 -161 -10 -231 0 -17 7 -28 15 -28 16 0 26 30 26
83 0 48 17 48 25 -1 13 -75 26 -113 46 -133 18 -18 22 -18 48 -4 30 15 51 58
51 106 0 34 18 84 27 75 3 -3 5 -26 5 -51 -2 -39 1 -45 17 -45 28 0 33 39 35
236 1 100 5 165 11 167 6 1 10 -18 11 -43 1 -25 5 -90 9 -145 8 -105 8 -195 1
-202 -2 -3 0 -18 6 -34 14 -40 40 -34 50 11 5 19 5 78 2 130 -4 52 -8 111 -9
130 -1 19 -5 67 -8 105 -14 157 -17 241 -8 254 9 14 16 -31 26 -179 3 -41 7
-84 9 -95 2 -11 7 -54 10 -95 22 -256 24 -273 38 -281 26 -17 39 13 36 82 -1
37 1 71 5 75 4 4 7 -6 8 -22 3 -108 40 -168 70 -113 10 19 7 134 -5 194 -2 11
-7 40 -11 65 -4 25 -9 52 -10 60 -3 14 -10 66 -20 150 -2 19 -7 73 -10 120 -3
47 -6 92 -7 100 -3 35 2 54 11 45 5 -6 12 -37 15 -70 3 -34 14 -103 25 -155
10 -52 22 -122 25 -155 31 -285 48 -353 83 -323 16 13 15 47 -7 188 -18 123
-22 145 -42 235 -11 50 -24 119 -28 155 -8 63 -32 190 -46 239 -5 18 -4 22 5
17 16 -10 32 -52 36 -91 7 -78 17 -124 39 -175 22 -49 55 -229 71 -385 3 -27
8 -70 12 -95 4 -25 6 -48 5 -52 -1 -4 7 -12 17 -17 33 -18 44 9 37 91 -5 72
-39 281 -51 319 -4 13 -2 19 9 19 17 0 31 -43 41 -125 3 -27 10 -76 16 -108 5
-32 11 -86 13 -121 4 -71 10 -86 35 -86 43 0 52 52 27 150 -27 104 -47 220
-41 230 4 6 10 8 15 5 12 -7 46 -124 56 -190 9 -57 8 -50 18 -92 7 -32 25 -46
43 -35 19 13 21 40 7 98 -7 32 -16 79 -19 104 -8 58 9 37 31 -40 29 -103 34
-112 63 -107 21 4 37 -5 83 -49 31 -30 63 -54 72 -54 26 0 38 40 40 131 0 48
4 91 9 95 4 4 17 -3 28 -15 20 -21 22 -21 40 -5 10 9 35 18 56 19 25 1 43 10
59 28 24 29 22 55 -9 115 -8 15 -43 81 -77 147 -34 66 -75 137 -91 157 -16 20
-29 42 -29 48 0 5 -14 35 -30 64 -19 33 -27 57 -21 60 11 7 40 -35 91 -134 19
-36 41 -76 50 -90 30 -44 118 -224 124 -252 3 -15 17 -39 30 -55 20 -24 26
-25 40 -14 9 7 16 24 16 38 0 42 -264 536 -319 598 -40 43 -62 83 -52 90 15 8
175 -233 208 -313 8 -20 26 -51 39 -69 13 -17 42 -67 63 -110 45 -89 101 -160
119 -149 21 13 13 40 -36 126 -27 47 -55 103 -62 125 -7 22 -26 55 -41 73 -26
29 -79 122 -79 137 0 3 8 1 19 -4 16 -9 101 -148 210 -344 33 -58 56 -78 79
-70 20 7 14 51 -14 94 -14 23 -37 61 -51 86 -13 25 -42 72 -63 106 -22 34 -37
63 -35 65 11 11 36 -11 56 -50 12 -24 40 -69 63 -100 22 -31 50 -72 61 -90 43
-70 83 -36 46 39 -12 25 -20 47 -17 50 2 3 17 -8 33 -24 50 -51 58 -54 88 -43
23 9 35 6 72 -15 52 -29 81 -32 90 -9 6 16 -26 122 -55 178 -13 27 -13 28 4
22 33 -13 38 -11 42 11 2 15 11 23 30 25 19 2 28 10 30 25 4 30 -122 155 -152
151 -32 -5 -21 -37 28 -83 43 -39 74 -85 59 -85 -6 0 -183 180 -183 185 0 1
12 1 28 0 20 0 28 5 30 20 2 14 -25 45 -97 109 -87 78 -122 116 -105 116 4 0
58 -47 209 -184 39 -35 90 -81 115 -102 25 -21 54 -46 65 -56 13 -10 25 -14
34 -9 19 12 -8 60 -54 97 -19 16 -65 58 -101 94 -37 35 -94 86 -127 112 -33
26 -56 48 -52 48 21 0 303 -226 347 -278 13 -15 29 -31 36 -36 14 -8 42 10 42
27 0 14 -123 130 -210 197 -41 32 -102 84 -135 116 -33 33 -80 74 -105 93 -25
19 -56 48 -70 64 -13 16 -43 40 -65 53 -42 24 -144 124 -127 124 9 0 22 -10
92 -72 19 -17 67 -56 105 -86 204 -162 312 -250 344 -281 20 -18 53 -45 73
-58 21 -14 40 -34 43 -44 17 -52 107 -80 119 -36 7 26 16 18 -227 216 -97 79
-174 148 -171 153 6 10 29 -2 69 -37 17 -15 50 -39 75 -53 25 -14 52 -33 60
-42 37 -40 175 -140 189 -138 9 2 17 13 19 24 2 15 -13 35 -55 70 -32 27 -71
61 -88 76 -16 14 -41 36 -54 47 -28 25 -21 39 11 24 30 -14 156 -117 179 -147
21 -27 67 -42 82 -27 18 18 -9 53 -72 93 -31 21 -68 49 -81 63 -22 23 -22 25
-4 25 11 0 28 -6 39 -14 133 -93 285 -111 369 -45 42 33 34 55 -34 89 -67 34
-87 59 -69 88 7 11 10 26 7 34 -7 16 -142 84 -237 118 -63 23 -116 64 -71 55
12 -2 29 -7 39 -10 9 -3 26 1 37 9 17 13 17 16 4 29 -8 8 -47 24 -86 36 -39
11 -79 30 -90 42 l-19 22 30 -7 c17 -5 41 -10 55 -12 14 -3 107 -33 208 -66
166 -56 184 -60 198 -46 39 39 -8 67 -166 99 -30 6 -80 22 -111 35 -30 12 -96
33 -145 45 -91 22 -118 34 -108 50 7 12 51 11 59 0 3 -6 45 -22 93 -36 48 -15
129 -40 181 -57 107 -33 171 -45 219 -39 23 2 12 38 -15 51 -31 14 -152 46
-453 121 -186 46 -261 72 -247 86 3 3 32 -5 63 -17 50 -18 137 -41 209 -56 11
-2 54 -10 95 -19 41 -8 88 -17 103 -19 15 -3 54 -12 85 -22 103 -30 176 -42
195 -33 23 13 22 46 -3 59 l-21 11 21 26 c20 26 20 27 3 44 -12 12 -42 19 -93
23 -41 3 -118 17 -170 30 -52 13 -113 27 -135 30 -22 4 -47 8 -55 11 -19 6
-64 13 -120 21 -53 7 -67 14 -51 24 7 4 35 3 64 -1 29 -5 87 -13 130 -19 43
-5 109 -19 146 -30 38 -11 97 -23 132 -26 35 -3 81 -9 102 -14 29 -6 42 -4 59
10 18 15 20 22 12 41 -8 16 -7 32 0 52 15 39 -4 51 -107 68 -45 7 -85 14 -89
15 -5 1 -17 2 -28 3 -11 0 -20 6 -20 12 0 8 15 9 48 4 26 -4 65 -9 87 -11 22
-2 57 -5 78 -8 46 -6 73 15 55 43 -10 16 -5 25 30 58 28 27 42 48 42 65 0 28
-5 31 -99 62 -36 12 -66 26 -68 33 -2 6 12 16 32 23 33 11 36 15 30 40 -3 16
-2 31 4 35 18 10 13 53 -6 59 -19 5 -120 0 -163 -9 -14 -3 -67 -7 -117 -10
-51 -4 -103 -8 -115 -11 -42 -10 -298 -17 -298 -8 0 5 21 9 48 9 63 1 169 13
272 32 47 8 144 17 215 19 72 2 140 6 151 9 34 8 37 33 8 62 -23 23 -24 27
-10 42 9 10 16 25 16 35 0 28 -38 33 -124 16 -107 -22 -200 -38 -260 -45 -27
-3 -83 -12 -125 -20 -107 -20 -134 -23 -241 -31 -93 -6 -118 -1 -50 11 19 3
53 11 75 17 55 14 80 18 139 23 63 4 144 24 152 37 20 32 -85 41 -174 14 -9
-3 -39 -8 -67 -11 -46 -5 -99 -13 -197 -31 -58 -10 -46 10 20 35 38 15 89 24
152 28 100 5 128 10 360 67 234 56 265 67 265 96 0 36 -27 36 -137 2 -193 -61
-239 -74 -243 -70 -15 15 49 45 138 65 127 28 270 96 275 131 2 12 -1 22 -7
22 -6 0 -54 -18 -106 -41 -112 -47 -165 -59 -165 -37 0 9 26 26 63 42 89 39
195 103 207 127 25 47 -9 73 -113 84 -65 7 -83 27 -48 51 23 17 28 46 9 62 -9
7 -39 -2 -103 -33 -49 -23 -101 -46 -115 -50 -52 -16 1 24 85 64 75 35 125 72
125 93 0 4 -8 12 -18 17 -21 11 -9 17 -209 -103 -163 -99 -243 -136 -243 -112
0 8 10 18 23 21 12 4 36 17 52 30 17 12 89 61 160 110 180 122 203 145 155
160 -16 5 -49 -14 -135 -77 -273 -199 -385 -259 -385 -208 0 4 44 36 98 71
106 68 242 165 339 241 47 37 60 53 56 68 -10 37 -58 26 -106 -24 -23 -24 -80
-72 -127 -107 -47 -34 -107 -79 -135 -99 -55 -41 -229 -150 -240 -150 -15 0
10 22 83 74 42 31 95 71 117 91 22 20 53 46 68 58 239 186 285 230 266 253
-20 25 -43 15 -109 -49 -36 -35 -85 -78 -110 -97 -25 -19 -89 -70 -143 -113
-55 -43 -101 -76 -103 -74 -3 3 37 42 87 88 179 162 321 309 315 325 -3 9 -6
18 -6 20 0 2 -9 4 -21 4 -13 0 -63 -41 -132 -107 -198 -191 -281 -268 -332
-308 -27 -22 -82 -73 -121 -112 -40 -40 -77 -73 -83 -73 -6 0 90 102 213 228
122 125 254 263 292 307 38 44 76 89 86 99 10 11 18 23 18 27 0 18 -13 39 -24
39 -15 0 -85 -74 -188 -196 -73 -86 -144 -151 -154 -141 -3 2 35 56 84 118
115 148 206 285 197 298 -10 17 -40 13 -57 -6 -8 -10 -26 -38 -40 -63 -15 -25
-35 -54 -45 -65 -10 -11 -41 -49 -68 -85 -26 -36 -64 -81 -83 -100 -29 -29
-33 -31 -28 -13 14 45 58 113 86 133 16 11 39 38 52 59 13 22 47 73 75 115 29
41 49 77 44 80 -9 6 -85 -79 -115 -128 -23 -39 -25 -41 -32 -33 -4 4 11 35 34
69 61 96 91 158 85 177 -19 52 -43 53 -119 2 -33 -22 -60 -38 -62 -36 -2 2 10
24 27 49 34 49 39 74 16 83 -16 5 -55 -22 -55 -39 0 -19 -181 -248 -196 -248
-14 0 -14 3 2 28 10 15 36 56 57 92 22 36 54 88 73 116 40 62 52 103 33 115
-14 8 -49 -15 -49 -33 0 -5 -33 -60 -73 -121 -40 -62 -84 -131 -97 -154 -27
-49 -57 -69 -37 -25 14 32 141 256 185 328 36 58 38 67 17 84 -26 22 -32 14
-154 -210 -26 -47 -77 -133 -114 -192 -37 -58 -67 -111 -67 -117 0 -6 -4 -11
-10 -11 -5 0 -10 3 -10 6 0 12 213 435 230 456 48 63 60 118 25 118 -18 0 -53
-53 -125 -195 -109 -214 -175 -313 -99 -149 39 85 86 174 140 266 31 52 37 77
26 96 -17 27 -47 12 -71 -35 -13 -27 -36 -68 -51 -93 -36 -61 -22 -14 21 73
29 59 31 69 17 74 -16 6 -55 -29 -66 -59 -2 -7 -7 -11 -10 -8 -3 3 6 29 20 57
26 55 24 73 -7 73 -21 0 -39 -27 -106 -160 -26 -52 -49 -89 -52 -82 -2 7 20
62 48 122 30 62 50 115 47 124 -10 26 -34 18 -48 -16 -16 -42 -99 -187 -111
-194 -4 -3 -8 1 -8 9 0 15 48 137 80 202 17 35 18 41 5 54 -13 13 -17 12 -34
-3 -11 -10 -28 -41 -37 -70 -9 -28 -20 -55 -25 -60 -25 -28 8 124 36 168 35
54 19 103 -36 108 -26 2 -98 -42 -138 -86 -29 -30 -41 -26 -36 14 4 37 -20 47
-40 16 -24 -36 -81 -257 -100 -384 -19 -128 -31 -172 -50 -172 -14 0 -12 41 5
86 6 15 14 47 16 69 3 22 13 74 21 115 18 88 20 99 28 163 3 27 15 69 27 93
16 36 18 47 8 59 -18 22 -39 18 -50 -7 -10 -22 -54 -233 -65 -313 -4 -22 -8
-47 -10 -55 -3 -8 -7 -33 -10 -55 -26 -172 -31 -192 -53 -217 -39 -46 -42 0
-8 127 14 50 36 158 50 240 14 83 34 179 45 214 25 76 26 97 6 105 -23 8 -52
-49 -70 -139 -15 -71 -25 -130 -30 -175 -4 -30 -13 -68 -20 -85 -13 -27 -13
-23 -10 56 4 94 25 202 57 295 23 66 20 94 -12 94 -29 0 -50 -68 -67 -220 -3
-30 -7 -62 -9 -70 -1 -8 -3 -27 -3 -42 -1 -16 -6 -28 -12 -28 -11 0 -6 169 6
229 17 89 1 138 -36 105 -21 -19 -29 -85 -35 -272 -2 -81 -9 -171 -14 -201 -6
-30 -10 -77 -10 -105 0 -57 -14 -92 -25 -64 -9 23 -10 83 -1 168 4 41 9 138
11 215 2 77 7 172 10 211 5 58 3 74 -10 88 -40 39 -51 11 -59 -149 -4 -71 -9
-233 -10 -358 -3 -228 -12 -312 -16 -155 -5 145 -1 510 5 580 5 58 3 68 -13
77 -40 21 -43 4 -44 -217 0 -189 -5 -238 -24 -220 -10 11 -28 223 -29 347 -1
124 -3 135 -20 141 -27 9 -45 -17 -39 -55 4 -27 2 -26 -15 11 -20 43 -43 56
-77 43z m876 -291 c0 -7 -9 -27 -20 -45 -30 -50 -52 -138 -55 -227 -9 -200
-22 -247 -99 -341 -24 -30 -66 -100 -93 -155 -35 -72 -54 -102 -70 -106 -24
-6 -85 10 -121 32 l-22 15 24 32 c13 18 38 60 56 95 21 40 50 77 78 100 89 72
164 147 183 184 13 25 21 68 25 130 7 118 17 158 60 236 33 58 54 78 54 50z
m-872 -301 c2 -166 4 -339 6 -385 2 -49 -1 -88 -8 -96 -14 -18 -69 -33 -116
-32 l-35 1 2 50 c1 28 15 111 32 185 29 134 55 282 65 372 7 64 38 208 45 208
3 0 7 -136 9 -303z m78 33 c9 -248 7 -425 -5 -465 -7 -21 -10 13 -11 120 -2
152 -2 378 -1 494 2 123 9 55 17 -149z m-821 153 c8 -56 54 -161 92 -212 l26
-36 -37 35 c-47 45 -95 140 -103 208 -7 66 12 71 22 5z m1155 -243 c-11 -56
-18 -74 -15 -45 3 28 7 61 10 75 16 83 19 94 22 80 2 -8 -6 -58 -17 -110z
m445 -37 c-3 -38 -9 -79 -12 -93 -10 -42 -82 -173 -155 -284 -22 -33 -42 -72
-45 -88 -3 -15 -10 -28 -15 -28 -30 0 36 132 137 273 37 52 63 124 71 197 12
107 29 127 19 23z m-705 -104 c3 -63 3 -136 0 -164 -5 -45 -6 -47 -12 -20 -7
31 -17 139 -19 210 -2 78 1 97 14 93 8 -3 14 -40 17 -119z m-793 34 c28 -43
54 -87 58 -98 4 -11 9 -67 10 -125 2 -76 8 -122 24 -167 11 -34 21 -66 21 -71
0 -5 -21 -20 -48 -35 -35 -19 -52 -23 -65 -16 -55 31 -90 198 -66 318 11 60
20 107 24 131 1 8 -1 29 -6 45 -14 58 -18 95 -11 95 5 0 31 -35 59 -77z m123
-63 c5 -19 11 -59 14 -89 3 -30 8 -74 12 -97 4 -26 2 -44 -5 -48 -6 -4 -11 -1
-12 6 0 7 -2 45 -4 85 -4 86 -19 144 -51 202 -13 24 -24 49 -24 55 0 20 60
-78 70 -114z m207 48 c0 -7 3 -26 6 -43 3 -16 8 -57 12 -90 3 -33 8 -69 11
-80 5 -20 5 -20 -10 -1 -9 11 -16 36 -17 55 0 20 -2 45 -4 56 -12 61 -15 115
-7 115 5 0 9 -6 9 -12z m1382 -84 c-58 -130 -131 -273 -145 -285 -22 -18 -18
25 4 59 36 53 90 148 126 225 46 96 58 97 15 1z m-2437 -92 c79 -54 238 -160
353 -237 220 -146 247 -167 238 -191 -6 -17 -86 -74 -102 -74 -12 0 -28 15
-284 268 -99 96 -218 207 -265 245 -79 62 -104 87 -88 87 3 0 70 -44 148 -98z
m2197 -17 c-33 -53 -73 -125 -90 -162 -36 -81 -50 -76 -19 8 23 63 149 261
162 253 3 -2 -20 -47 -53 -99z m-1264 35 c3 -19 8 -42 10 -50 2 -8 7 -44 10
-80 4 -36 9 -68 12 -72 2 -5 0 -8 -5 -8 -12 0 -30 87 -38 180 -7 76 0 94 11
30z m1969 -2 c-5 -7 -85 -105 -178 -217 -94 -112 -196 -234 -226 -272 -30 -38
-63 -71 -72 -74 -24 -9 -140 102 -136 129 2 12 30 39 68 65 95 65 354 253 360
261 9 13 171 120 181 120 6 0 7 -6 3 -12z m-450 -70 c-47 -94 -96 -179 -101
-175 -5 6 35 90 83 172 45 77 56 79 18 3z m-234 -67 c-23 -39 -48 -89 -54
-113 -7 -23 -19 -44 -26 -46 -16 -6 -8 22 30 105 30 65 79 137 88 129 2 -3
-14 -37 -38 -75z m-2215 -21 c10 -11 16 -20 13 -20 -3 0 -13 9 -23 20 -10 11
-16 20 -13 20 3 0 13 -9 23 -20z m75 -75 l35 -40 -43 40 c-23 21 -42 44 -42
49 0 6 3 6 8 1 4 -6 23 -28 42 -50z m1638 -65 c42 -11 83 -20 91 -20 13 0 163
-65 249 -108 57 -29 256 -182 305 -235 64 -69 196 -265 246 -364 l40 -80 -26
5 c-30 6 -31 20 12 -178 29 -135 42 -171 55 -150 7 12 6 42 -5 140 -5 43 -4
44 9 20 22 -38 35 -145 37 -292 1 -96 -3 -108 -31 -108 -21 0 -26 -19 -34
-125 -6 -69 -34 -171 -83 -299 -23 -60 -31 -92 -24 -99 7 -7 16 -6 28 4 11 9
5 -8 -16 -46 -42 -76 -71 -108 -86 -95 -7 6 -22 -1 -45 -20 -19 -17 -38 -30
-42 -30 -3 0 -15 -16 -27 -35 -21 -36 -41 -46 -41 -20 0 9 22 37 48 64 27 27
81 101 120 164 74 117 89 167 53 167 -13 0 -26 -18 -45 -62 -56 -129 -76 -151
-311 -342 -33 -26 -75 -55 -92 -64 -34 -16 -44 -46 -19 -55 8 -3 40 10 72 29
31 19 59 32 61 30 6 -6 -75 -86 -87 -86 -6 0 -48 -25 -95 -57 -47 -31 -88 -54
-91 -51 -3 4 9 14 26 24 35 21 36 50 2 48 -12 -1 -43 -9 -68 -19 -36 -14 -45
-21 -42 -39 2 -16 10 -21 31 -21 38 1 34 -9 -14 -28 -30 -12 -40 -21 -37 -34
6 -30 54 -18 171 41 103 53 146 69 69 26 -20 -11 -44 -33 -53 -48 -13 -22 -40
-36 -150 -74 -137 -48 -146 -50 -259 -69 -75 -12 -238 -14 -325 -4 -109 13
-306 73 -412 125 -164 81 -269 157 -376 272 -184 200 -297 415 -347 662 -20
98 -22 127 -16 280 8 202 11 225 43 336 65 225 176 417 335 580 67 70 227 181
337 235 113 56 269 105 376 120 141 18 385 11 483 -15z m-1584 -94 c9 -14 16
-29 16 -33 0 -10 -70 58 -82 81 -9 17 -8 17 20 -2 16 -12 37 -33 46 -46z m189
-81 c59 -55 107 -103 107 -107 0 -24 -37 4 -128 96 -94 96 -116 123 -93 114 4
-1 56 -48 114 -103z m2437 79 c0 -9 -139 -192 -151 -200 -19 -11 22 60 77 134
47 63 74 87 74 66z m-143 -82 c-68 -100 -118 -155 -129 -144 -7 7 0 22 20 44
86 95 142 164 142 172 0 5 3 6 7 3 3 -4 -14 -37 -40 -75z m120 -61 c-7 -15
-27 -46 -46 -67 -18 -21 -49 -63 -68 -91 -42 -66 -51 -68 -19 -5 22 43 131
192 141 192 2 0 -1 -13 -8 -29z m-2434 -40 c58 -60 75 -91 38 -71 -21 11 -116
130 -103 130 4 0 33 -27 65 -59z m-48 -69 c21 -23 35 -45 32 -48 -10 -10 -45
16 -66 50 -21 33 -30 69 -12 51 4 -6 25 -29 46 -53z m-455 -29 c123 -51 211
-71 298 -67 83 5 137 -13 154 -52 8 -18 5 -32 -18 -73 -33 -58 -34 -58 -138
-47 -69 7 -143 39 -225 96 -32 22 -100 55 -152 74 -84 29 -110 34 -239 39 -80
4 -158 9 -175 12 -47 9 -53 24 -9 21 21 -1 69 3 107 10 37 7 93 16 125 20 31
3 59 8 62 11 14 13 135 -12 210 -44z m3755 -92 c-3 -5 -19 -13 -37 -16 -17 -4
-81 -32 -142 -61 -117 -58 -203 -86 -239 -78 -42 9 -166 5 -209 -6 -24 -6 -75
-29 -115 -51 -40 -21 -77 -39 -82 -39 -12 0 -61 92 -61 113 0 20 38 52 100 83
47 24 70 29 155 32 63 2 126 -2 169 -11 102 -21 215 -15 306 16 74 25 167 36
155 18z m-3557 -197 c17 -3 32 -10 32 -14 0 -9 -58 3 -101 20 -16 7 -26 16
-24 20 3 5 18 2 33 -6 15 -7 42 -17 60 -20z m-151 -14 c26 -16 75 -36 108 -44
146 -35 147 -35 69 -33 -56 2 -84 9 -135 34 -36 18 -74 42 -84 53 -25 28 -15
25 42 -10z m3573 14 c0 -10 -129 -64 -152 -64 -13 1 11 15 57 35 84 35 95 38
95 29z m-3340 -20 c0 -2 -9 -4 -21 -4 -11 0 -18 4 -14 10 5 8 35 3 35 -6z m40
6 c0 -5 -7 -10 -15 -10 -8 0 -15 5 -15 10 0 6 7 10 15 10 8 0 15 -4 15 -10z
m3055 -10 c6 -10 -31 -18 -125 -25 -89 -6 -115 -12 -185 -41 -91 -39 -98 -40
-93 -18 5 27 71 60 153 77 80 16 241 21 250 7z m-180 -80 c-69 -15 -129 -40
-168 -71 -50 -40 -58 -31 -13 12 46 44 108 68 171 67 l50 0 -40 -8z m285 -29
c0 -12 -88 -38 -226 -66 -78 -15 -129 -32 -169 -54 -40 -23 -61 -29 -68 -22
-14 14 13 44 57 65 48 23 142 46 213 52 35 3 86 12 115 19 67 16 78 17 78 6z
m-3265 -20 c77 -7 94 -24 29 -29 -28 -2 -58 5 -95 23 -30 14 -43 22 -29 19 14
-4 57 -9 95 -13z m3735 -180 c0 -5 -21 -12 -47 -17 -27 -4 -50 -8 -53 -9 -3
-1 -30 -5 -60 -10 -30 -5 -57 -9 -60 -10 -3 -1 -30 -5 -60 -9 -30 -5 -62 -10
-71 -11 -18 -4 -116 -15 -169 -20 -91 -8 -284 -17 -280 -12 8 8 52 15 139 22
42 4 130 15 196 25 66 10 152 22 190 26 39 3 79 8 90 9 48 6 120 17 122 19 7
6 63 3 63 -3z m-3704 -118 c-7 -98 -13 -107 -73 -109 -26 -1 -133 -5 -238 -9
-211 -7 -266 -10 -404 -19 -77 -6 -92 -4 -83 6 6 8 23 15 37 16 38 3 125 26
315 83 91 28 203 59 250 69 47 11 105 26 130 34 68 21 73 15 66 -71z m2881
-67 c37 -8 95 -21 128 -29 33 -8 83 -18 110 -21 115 -15 188 -29 325 -61 80
-19 178 -39 218 -46 39 -6 72 -15 72 -21 0 -7 -49 -8 -152 -4 -177 8 -215 9
-283 6 -41 -2 -158 2 -420 13 -11 0 -35 -2 -52 -6 -18 -4 -33 -3 -34 1 0 4 -2
18 -4 32 -12 100 -6 168 15 155 4 -3 39 -11 77 -19z m843 0 c-3 -2 -54 -7
-113 -10 -60 -4 -111 -7 -115 -7 -4 -1 -20 0 -37 1 -27 3 -26 3 10 9 47 8 261
14 255 7z m-3760 -115 c11 -1 11 -4 2 -13 -8 -8 -63 -11 -174 -11 -312 0 -548
6 -548 14 0 4 123 7 274 6 151 -1 301 0 333 4 32 3 67 4 78 3 11 -1 27 -3 35
-3z m-25 -92 c-3 -4 -64 -7 -134 -6 -147 2 -168 14 -29 16 51 1 93 3 95 4 7 7
72 -6 68 -14z m2940 -23 c41 -2 78 -6 82 -10 3 -3 -2 -6 -13 -7 -166 -8 -164
-8 -164 12 0 11 4 18 9 14 6 -3 44 -7 86 -9z m258 -13 c-7 -2 -19 -2 -25 0 -7
3 -2 5 12 5 14 0 19 -2 13 -5z m182 -8 c6 -2 -30 -4 -78 -4 -49 -1 -86 3 -83
7 4 7 139 5 161 -3z m-638 -42 c-3 -5 -8 -29 -11 -55 -4 -26 -11 -58 -16 -70
-7 -20 -9 -17 -9 17 -1 49 16 115 30 115 6 0 8 -3 6 -7z m233 -17 c58 -4 123
-9 145 -12 74 -9 48 -13 -51 -7 -55 3 -126 6 -159 8 -78 3 -75 2 -75 20 0 12
4 13 18 6 9 -5 64 -12 122 -15z m620 -81 c30 -4 78 -11 105 -16 28 -6 63 -13
79 -16 16 -2 38 -9 50 -14 41 -18 -140 -1 -331 32 -135 22 -68 32 97 14z
m-609 -6 c-13 -5 -42 -11 -65 -14 -22 -3 -51 -7 -63 -9 -29 -6 -40 12 -14 22
11 4 53 8 93 8 53 1 66 -1 49 -7z m-2886 -71 c4 -24 18 -67 31 -97 13 -29 24
-62 24 -72 0 -34 -110 -79 -196 -79 -53 0 -197 -37 -269 -69 -51 -23 -181
-131 -267 -223 -37 -40 -70 -69 -74 -66 -7 8 128 186 187 246 59 59 130 104
228 143 123 48 167 83 230 177 41 62 60 82 77 82 18 0 23 -7 29 -42z m-685 18
c0 -3 -4 -8 -10 -11 -5 -3 -10 -1 -10 4 0 6 5 11 10 11 6 0 10 -2 10 -4z
m3480 -93 c3 0 28 -7 57 -17 83 -28 220 -123 246 -171 12 -23 13 -24 -73 46
-64 52 -146 96 -213 113 -31 8 -62 18 -67 21 -19 12 0 24 23 16 12 -5 24 -8
27 -8z m-3080 -22 c-15 -8 -144 -36 -210 -45 -19 -3 -66 -10 -105 -15 -109
-16 -238 -30 -325 -36 -42 -2 -59 -1 -50 6 24 15 84 29 147 34 140 11 219 20
377 44 145 21 187 24 166 12z m3105 -55 c95 -46 138 -77 241 -175 49 -46 106
-95 127 -108 37 -26 47 -43 25 -43 -16 0 -69 42 -154 123 -108 103 -179 153
-266 189 -42 17 -75 35 -72 40 9 14 27 9 99 -26z m-79 -101 c32 -16 103 -77
202 -175 165 -163 199 -185 327 -218 90 -23 215 -76 215 -91 0 -6 -42 5 -92
23 -51 19 -112 36 -135 39 -148 21 -237 57 -328 135 -108 93 -231 152 -325
156 -25 1 -45 6 -45 11 0 12 53 114 67 133 16 19 59 14 114 -13z m-2683 -26
c-28 -28 -151 -62 -253 -69 -94 -6 -123 -14 -194 -48 -5 -3 -5 1 -1 8 17 27
97 52 183 56 82 5 199 32 232 54 21 14 47 13 33 -1z m37 -44 c0 -13 -126 -70
-142 -64 -2 0 -16 -5 -32 -11 -16 -6 -67 -13 -113 -15 -46 -2 -94 -7 -106 -10
-16 -4 -18 -3 -7 3 18 11 78 23 135 28 86 6 126 15 191 44 77 33 74 32 74 25z
m3100 -203 c30 -17 84 -36 119 -42 97 -17 177 -52 166 -70 -3 -5 -25 0 -49 10
-23 11 -74 27 -112 35 -92 21 -119 32 -186 77 -51 34 -128 114 -128 132 0 4
30 -19 68 -52 37 -33 92 -73 122 -90z m-3105 122 c-30 -22 -140 -54 -209 -59
-57 -5 -54 -3 49 24 61 16 121 34 135 39 36 15 48 14 25 -4z m208 -166 c4 -12
-9 -33 -35 -61 -22 -23 -61 -69 -86 -102 -26 -33 -51 -65 -57 -71 -69 -75
-206 -244 -247 -305 -8 -13 -19 -19 -26 -15 -7 4 10 40 50 104 118 188 138
222 218 378 45 87 86 162 93 166 13 9 82 -63 90 -94z m2260 -41 c54 -71 82
-117 73 -117 -11 0 -165 184 -160 191 10 16 34 -4 87 -74z m-3008 -6 c-14 -13
-176 -111 -183 -111 -10 0 70 56 128 88 57 32 70 38 55 23z m2934 -29 c14 -15
44 -50 66 -77 22 -28 42 -52 45 -55 3 -3 32 -36 65 -75 33 -38 73 -84 88 -101
16 -18 43 -52 60 -76 30 -40 21 -40 -24 2 -26 24 -189 210 -254 291 -33 41
-66 80 -72 87 -14 14 -17 32 -7 32 4 0 19 -12 33 -28z m97 -213 c22 -26 48
-57 58 -70 65 -80 213 -246 281 -315 44 -44 88 -95 99 -113 18 -33 18 -33 -3
-22 -11 6 -28 23 -38 38 -10 14 -46 53 -79 87 -34 34 -84 86 -110 116 -27 31
-78 89 -114 130 -36 41 -113 124 -172 185 -102 105 -143 159 -132 176 5 8 140
-129 210 -212z m-2247 179 c-6 -13 -42 -54 -78 -93 -37 -38 -89 -96 -116 -129
-69 -81 -135 -150 -135 -139 0 18 320 383 337 383 2 0 -2 -10 -8 -22z m2002
-30 c8 -7 49 -51 90 -98 40 -47 93 -105 115 -130 23 -25 70 -79 105 -120 90
-108 136 -156 204 -213 33 -27 64 -56 68 -63 10 -18 -7 -18 -25 -1 -28 28
-145 114 -193 141 -27 17 -81 52 -120 80 -38 27 -150 103 -247 168 -98 65
-178 121 -178 125 0 3 19 24 43 46 87 81 107 90 138 65z m-1931 -5 c0 -20
-270 -307 -279 -297 -3 3 3 13 14 22 25 21 209 233 227 262 12 19 38 28 38 13z
m290 -168 c28 -14 51 -31 52 -38 0 -6 2 -19 3 -27 2 -27 -24 -130 -44 -168
-11 -20 -34 -50 -51 -67 -75 -70 -115 -174 -111 -290 6 -173 5 -182 -35 -263
-42 -85 -54 -85 -25 0 22 65 21 130 -3 231 -9 37 -19 98 -22 135 -6 73 -4 79
95 247 52 88 78 170 81 253 0 16 3 16 60 -13z m133 -144 c-6 -44 -57 -158 -66
-144 -3 5 8 39 25 74 17 37 30 79 29 99 0 23 2 30 8 21 5 -7 6 -30 4 -50z
m1070 -10 c56 -84 61 -102 67 -226 7 -146 19 -176 124 -292 70 -78 142 -201
133 -227 -2 -6 -10 0 -17 14 -33 63 -73 100 -153 140 -139 70 -175 118 -202
266 -20 107 -50 178 -102 236 -21 24 -47 53 -57 65 l-19 23 49 21 c103 45 136
41 177 -20z m-979 15 c-7 -38 -70 -167 -108 -221 -19 -27 -50 -73 -68 -102
-18 -29 -36 -53 -40 -53 -24 -1 12 65 77 142 41 48 49 67 114 241 13 33 32 28
25 -7z m1233 -52 c37 -93 47 -144 28 -144 -7 0 -15 17 -19 39 -3 21 -19 69
-36 106 -33 74 -36 89 -17 83 6 -3 26 -40 44 -84z m-1161 38 c-3 -5 -8 -23
-11 -42 -7 -39 -28 -82 -49 -99 -23 -19 -20 -3 14 63 17 32 30 65 30 72 0 8 5
14 11 14 5 0 8 -4 5 -8z m286 -20 c7 -7 13 -58 15 -129 1 -65 5 -190 8 -278 8
-232 11 -464 5 -459 -3 3 -10 29 -16 57 -6 29 -23 102 -37 162 -23 96 -43 200
-61 325 -7 47 -12 67 -26 120 -15 55 -18 69 -32 144 -8 43 -8 60 1 65 18 12
130 6 143 -7z m247 -21 c9 -6 12 -18 7 -37 -8 -31 -11 -54 -21 -177 -11 -124
-25 -79 -25 79 0 147 3 158 39 135z m-157 -248 c-1 -380 -5 -553 -13 -547 -8
5 -9 772 -1 787 12 22 14 -20 14 -240z m70 115 c0 -241 -6 -408 -14 -408 -8 0
-11 70 -8 285 1 113 4 197 9 229 0 5 4 7 7 3 3 -3 6 -52 6 -109z m-1528 49
c-16 -18 -42 -49 -58 -70 -16 -20 -34 -37 -38 -37 -12 0 10 30 68 94 53 58 76
69 28 13z m2186 -33 c11 -38 22 -78 25 -89 10 -48 14 -62 24 -87 5 -15 22 -46
37 -68 28 -41 27 -63 -1 -40 -47 39 -87 145 -100 262 -3 35 -9 72 -12 83 -3
11 -3 17 1 14 4 -4 16 -37 26 -75z m-1426 -134 c-15 -29 -30 -65 -34 -79 -8
-25 -8 -25 -9 7 -1 38 19 90 44 115 28 28 28 14 -1 -43z m1406 -32 c21 -59 68
-144 95 -171 33 -34 100 -127 120 -167 29 -57 58 -154 53 -178 -2 -9 -12 10
-21 43 -24 83 -49 125 -136 235 -42 52 -86 111 -99 131 -27 45 -61 139 -55
157 9 25 21 11 43 -50z m-1177 -30 c-4 -43 -33 -122 -40 -114 -4 3 20 107 32
144 9 25 13 11 8 -30z m731 -135 c4 -32 9 -74 11 -93 3 -19 7 -53 10 -75 3
-22 7 -78 10 -125 4 -90 -8 -76 -20 23 -4 27 -9 59 -11 71 -14 75 -24 256 -14
256 4 0 11 -26 14 -57z"/>
<path d="M3158 3365 c-1 -1 -25 -6 -52 -9 -27 -4 -57 -11 -68 -17 -10 -5 -18
-7 -18 -4 0 6 -105 -51 -127 -69 -145 -117 -198 -254 -198 -511 0 -149 8 -265
20 -296 3 -8 23 -23 43 -32 30 -13 38 -22 40 -47 2 -30 -4 -34 -59 -44 -31 -5
-59 -18 -59 -27 0 -5 -6 -9 -14 -9 -8 0 -16 -5 -18 -12 -9 -27 -74 -12 -153
35 -43 25 -83 48 -89 50 -8 3 -8 16 0 44 21 80 -30 103 -65 31 -37 -78 -33
-113 17 -153 13 -11 36 -30 51 -43 14 -12 40 -32 58 -45 43 -29 54 -52 62
-129 2 -13 38 -9 48 5 6 6 13 25 17 40 8 33 37 34 46 2 17 -65 53 -68 70 -5 9
33 36 70 47 63 13 -10 37 2 73 37 23 22 56 47 74 55 40 19 61 55 61 105 0 32
-9 47 -48 89 -64 68 -70 87 -62 204 6 100 20 154 52 204 37 58 50 57 119 -11
58 -57 105 -77 164 -70 28 3 87 30 100 45 3 3 13 8 22 12 9 3 22 25 29 49 17
58 22 62 57 44 37 -19 44 -36 29 -75 -15 -41 -5 -47 51 -32 58 15 82 36 82 72
0 62 -34 94 -180 170 -63 33 -68 34 -180 33 -74 0 -126 -5 -145 -14 -62 -28
-76 -18 -33 22 42 38 88 58 134 58 21 0 49 9 66 22 30 21 31 21 44 3 8 -10 14
-23 14 -28 0 -5 16 -7 35 -4 19 3 37 1 40 -3 3 -5 14 -6 24 -3 11 3 44 -2 74
-11 68 -20 73 -20 81 0 15 40 -92 130 -213 179 -55 23 -152 40 -163 30z m6
-371 c19 -19 20 -26 4 -42 -16 -16 -53 -15 -67 2 -14 17 -5 43 17 49 29 8 30
7 46 -9z"/>
<path d="M1846 3345 c-84 -21 -171 -62 -241 -113 -69 -50 -81 -67 -65 -87 10
-12 17 -12 49 4 20 11 78 36 129 56 91 36 92 36 139 20 25 -9 56 -15 67 -14
53 4 75 -2 81 -20 3 -11 19 -26 35 -33 17 -7 30 -16 30 -20 0 -3 8 -8 18 -11
9 -2 -21 -4 -68 -5 -220 0 -432 -90 -403 -169 8 -22 54 -63 70 -63 7 0 15 11
19 25 7 28 39 55 66 55 13 0 18 -8 18 -30 0 -52 93 -130 156 -130 14 0 38 -7
54 -15 16 -9 61 -17 100 -19 39 -2 74 -6 77 -9 10 -11 142 63 159 89 16 24 16
28 0 60 -24 51 -77 121 -103 135 -12 7 -20 16 -17 21 5 8 66 -20 72 -34 2 -5
10 -8 18 -8 8 0 14 -4 14 -8 0 -5 20 -31 45 -58 25 -27 45 -58 45 -70 0 -23
21 -37 44 -28 11 4 14 26 14 87 0 76 -3 86 -34 134 -19 28 -34 56 -34 61 0 9
-70 82 -102 107 -29 23 -68 45 -68 39 0 -4 -6 -2 -12 3 -12 10 -87 37 -98 36
-3 0 -16 4 -29 9 -45 17 -182 18 -245 3z m128 -341 c20 -19 5 -54 -24 -54 -48
0 -64 25 -34 54 20 20 38 20 58 0z m261 -44 c12 -19 -74 -119 -102 -120 -15 0
-17 26 -4 35 5 3 12 19 16 35 4 17 13 37 22 45 17 17 59 20 68 5z"/>
<path d="M3679 2668 c0 -18 -2 -42 -5 -53 -4 -23 -8 -189 -6 -252 2 -55 27
-58 37 -5 8 43 8 297 -1 324 -9 29 -24 21 -25 -14z"/>
<path d="M3750 2508 c1 -65 -5 -116 -19 -168 -23 -84 -26 -126 -10 -136 16 -9
28 7 33 46 2 19 9 55 16 80 13 46 22 221 13 253 -2 9 -11 17 -19 17 -12 0 -14
-18 -14 -92z"/>
<path d="M3583 2312 c-6 -4 -18 -29 -26 -57 -8 -27 -21 -67 -30 -87 -13 -30
-13 -39 -3 -48 21 -17 43 -1 61 43 36 89 35 172 -2 149z"/>
<path d="M3630 2203 c-18 -49 -42 -103 -52 -121 -29 -52 -19 -78 19 -54 21 13
93 190 93 228 0 61 -25 39 -60 -53z"/>
<path d="M2434 1997 c-54 -27 -96 -41 -136 -45 -58 -5 -58 -5 -69 26 -19 55
-60 52 -77 -6 -25 -79 -20 -99 28 -112 21 -6 42 -15 46 -21 3 -6 23 -18 43
-27 39 -17 40 -17 92 -26 20 -3 47 -10 60 -15 13 -5 35 -13 49 -19 14 -5 28
-9 31 -8 4 0 15 -7 26 -16 10 -9 40 -22 67 -28 27 -6 57 -15 66 -20 10 -6 34
-12 53 -15 38 -6 55 7 63 51 6 33 21 45 94 80 30 14 72 34 92 45 20 10 44 19
53 19 9 0 29 7 45 15 38 20 40 58 5 106 -14 19 -28 33 -31 32 -2 -2 -20 -19
-38 -38 -19 -19 -43 -35 -53 -35 -29 0 -113 31 -113 41 0 5 -7 9 -15 9 -8 0
-15 3 -15 8 0 20 -68 34 -174 36 l-115 2 -77 -39z m238 -152 c64 0 114 -3 110
-7 -4 -4 -41 -16 -83 -27 -79 -20 -118 -18 -169 9 -14 7 -27 13 -30 12 -12 -4
-40 10 -40 19 0 7 17 8 48 3 26 -5 100 -9 164 -9z"/>
<path d="M3351 1843 c-45 -52 -51 -73 -22 -73 21 0 101 84 101 106 0 29 -39
12 -79 -33z"/>
<path d="M2525 1633 c-55 -16 -75 -29 -75 -48 0 -21 26 -24 82 -9 62 16 122
18 148 4 10 -5 27 -25 38 -43 25 -42 57 -52 83 -26 36 36 19 79 -41 103 -76
30 -169 38 -235 19z"/>
<path d="M630 4189 c0 -17 158 -172 234 -229 46 -34 72 -48 79 -41 14 14 -7
43 -79 113 -150 144 -179 167 -206 168 -16 0 -28 -5 -28 -11z"/>
<path d="M581 4136 c-16 -19 -6 -38 36 -72 20 -16 43 -35 50 -43 36 -36 96
-81 108 -81 7 0 15 9 18 20 4 14 -8 30 -45 62 -57 48 -85 75 -110 107 -20 24
-41 27 -57 7z"/>
<path d="M810 3913 c0 -10 26 -37 57 -61 43 -32 59 -40 69 -31 19 15 -1 43
-58 80 -49 33 -68 36 -68 12z"/>
<path d="M376 3762 c-8 -14 9 -31 65 -65 76 -46 118 -62 130 -50 14 14 2 38
-29 54 -15 8 -48 26 -73 41 -46 28 -83 36 -93 20z"/>
<path d="M4900 3071 c-14 -8 -175 -39 -236 -46 -27 -3 -46 -22 -40 -40 6 -18
239 0 323 26 33 11 46 29 37 54 -7 16 -59 20 -84 6z"/>
<path d="M138 2872 c-24 -5 -23 -29 1 -42 25 -13 51 -3 51 20 0 19 -23 29 -52
22z"/>
<path d="M4684 1805 c-15 -11 -15 -14 6 -33 13 -12 33 -25 44 -28 12 -3 49
-19 84 -35 71 -33 85 -35 102 -14 19 23 -17 57 -87 80 -32 10 -62 22 -68 25
-20 14 -65 17 -81 5z"/>
<path d="M2246 683 c-3 -16 -8 -44 -10 -63 -11 -83 -27 -169 -41 -217 -9 -29
-15 -63 -13 -75 3 -27 -11 -140 -22 -179 -10 -33 8 -63 32 -54 14 6 24 38 34
115 1 14 6 41 9 60 4 19 9 46 11 60 3 14 9 48 14 75 5 28 12 73 15 100 3 28 7
59 9 71 5 25 8 80 7 112 -2 34 -38 29 -45 -5z"/>
<path d="M1538 613 c-70 -92 -158 -230 -158 -246 0 -21 37 -32 56 -16 8 6 31
42 51 78 20 36 53 93 75 125 70 105 50 156 -24 59z"/>
</g>
</svg>
